<svg width="64" height="64" viewBox="0 0 64 64" fill="none" xmlns="http://www.w3.org/2000/svg">
<path d="M0 32C0 14.3269 14.3269 1.52588e-05 32 1.52588e-05V1.52588e-05C49.6731 1.52588e-05 64 14.3269 64 32V32C64 49.6731 49.6731 64 32 64V64C14.3269 64 0 49.6731 0 32V32Z" fill="#DCFCE7"/>
<path d="M48.3352 28.6667C49.0963 32.4022 48.5539 36.2857 46.7982 39.6697C45.0426 43.0536 42.18 45.7334 38.6877 47.2622C35.1954 48.791 31.2845 49.0763 27.6073 48.0706C23.9301 47.0649 20.7088 44.829 18.4806 41.7357C16.2524 38.6424 15.152 34.8787 15.3629 31.0723C15.5738 27.2659 17.0833 23.6468 19.6396 20.8186C22.1959 17.9904 25.6445 16.1241 29.4103 15.5308C33.1761 14.9375 37.0315 15.6531 40.3335 17.5583" stroke="#00A63E" stroke-width="3.33333" stroke-linecap="round" stroke-linejoin="round"/>
<path d="M27 30.3334L32 35.3334L48.6667 18.6667" stroke="#00A63E" stroke-width="3.33333" stroke-linecap="round" stroke-linejoin="round"/>
</svg>
